<svg id="svg" xmlns="http://www.w3.org/2000/svg" xmlns:xlink="http://www.w3.org/1999/xlink" width="100" height="116" viewBox="0, 0, 400,463.51931330472104"><g id="svgg"><path id="path0" d="M206.832 9.753 C 206.615 9.965,200.351 11.550,192.911 13.275 C 169.162 18.783,162.306 23.425,144.056 46.352 C 138.031 53.921,137.295 55.308,133.804 65.665 L 130.043 76.824 130.057 97.854 C 130.076 124.859,133.418 140.808,143.545 162.232 C 155.116 186.711,163.898 201.856,172.211 211.670 C 181.330 222.436,181.564 225.521,174.396 240.569 C 165.088 260.111,144.832 291.037,137.221 297.326 C 110.912 319.064,67.369 319.603,43.513 298.487 C 32.642 288.864,23.176 271.107,23.176 260.338 C 23.176 257.708,22.728 251.257,22.180 246.002 L 21.184 236.448 24.455 228.739 C 28.478 219.258,31.892 214.918,40.103 208.846 C 52.722 199.513,45.808 196.577,32.310 205.536 C 13.913 217.748,8.955 227.947,9.671 252.105 C 10.773 289.260,21.805 306.494,55.815 324.187 C 64.985 328.957,89.888 332.018,100.992 329.739 C 130.783 323.625,148.753 308.658,176.375 266.953 C 181.535 259.163,186.933 251.362,188.372 249.616 C 189.810 247.871,191.926 245.214,193.074 243.713 C 198.289 236.893,205.141 237.298,214.036 244.954 C 239.279 266.681,253.873 286.920,267.595 319.235 C 272.732 331.331,273.864 337.945,275.558 365.752 L 276.479 380.860 273.803 387.640 C 260.781 420.645,241.575 435.409,208.487 437.849 L 195.944 438.774 190.890 435.984 C 181.866 431.002,168.743 422.990,165.665 420.585 C 158.384 414.894,148.693 417.135,149.893 424.233 C 150.404 427.259,151.465 428.170,169.076 440.717 C 193.681 458.248,195.038 458.583,225.119 454.570 L 240.366 452.535 249.070 446.685 C 260.889 438.741,265.721 434.121,273.485 423.339 C 277.119 418.292,282.687 410.687,285.859 406.438 C 295.855 393.045,296.235 392.122,297.124 379.144 C 300.072 336.070,298.529 327.793,283.568 306.438 C 255.649 266.586,247.755 256.314,239.372 248.927 C 230.746 241.325,216.146 230.009,212.661 228.224 C 208.979 226.337,209.062 226.634,210.702 221.229 C 216.755 201.284,248.217 181.981,274.685 181.975 C 283.049 181.974,313.668 187.527,321.776 190.516 C 345.664 199.324,345.316 199.066,363.025 221.062 C 379.974 242.112,383.853 255.878,377.892 273.820 C 376.872 276.888,375.060 283.317,373.864 288.105 C 372.669 292.894,371.452 297.433,371.161 298.191 C 370.869 298.953,371.063 299.571,371.594 299.571 C 377.301 299.571,389.145 279.635,391.911 265.375 C 397.056 238.849,388.996 219.694,363.948 198.921 C 359.936 195.593,354.721 191.036,352.361 188.795 C 337.721 174.894,310.605 167.607,276.824 168.493 C 258.364 168.978,252.813 170.530,234.765 180.252 C 219.925 188.245,213.092 194.408,199.722 211.858 C 196.483 216.087,196.945 216.356,188.231 205.150 C 172.627 185.084,156.797 155.087,149.728 132.189 C 143.383 111.636,141.470 80.377,145.761 67.382 C 155.393 38.216,205.076 11.613,232.637 20.865 C 267.488 32.564,292.637 58.545,296.628 86.973 C 298.762 102.167,304.124 103.042,305.232 88.377 C 306.019 77.952,299.497 60.094,290.440 47.874 C 268.196 17.863,254.653 10.317,221.854 9.661 C 213.809 9.500,207.049 9.542,206.832 9.753 " stroke="none" fill="#dab997" fill-rule="evenodd"></path></g></svg>