<svg id="svg" xmlns="http://www.w3.org/2000/svg" xmlns:xlink="http://www.w3.org/1999/xlink" width="100" height="116" viewBox="0, 0, 400,462.88209606986896"><g id="svgg"><path id="path0" d="M157.205 10.500 C 139.876 15.138,137.274 16.641,125.222 28.982 C 105.576 49.100,94.451 71.049,95.486 87.648 C 95.940 94.925,97.340 98.690,99.592 98.690 C 100.526 98.690,103.753 89.247,104.367 84.716 C 105.416 76.974,110.251 65.925,117.652 54.355 C 129.682 35.549,163.581 16.445,182.533 17.790 C 209.883 19.732,235.145 33.494,249.515 54.281 C 270.467 84.590,253.594 154.072,212.651 206.080 C 205.033 215.757,204.040 216.659,203.256 214.615 C 200.895 208.461,179.899 187.490,171.738 183.135 C 168.308 181.304,162.611 178.225,159.076 176.292 C 128.939 159.809,69.881 167.758,44.541 191.709 C 41.419 194.660,36.703 198.814,34.060 200.939 C 24.400 208.709,15.011 220.735,10.929 230.568 C 9.632 233.690,8.215 236.618,7.779 237.074 C 3.878 241.159,7.949 270.266,14.181 282.842 C 20.336 295.262,28.829 305.373,28.819 300.268 C 28.815 298.526,23.745 278.740,22.036 273.799 C 15.243 254.159,22.974 235.676,50.584 205.543 C 59.378 195.946,76.301 189.563,106.828 184.328 C 132.912 179.855,146.048 182.097,166.602 194.530 C 179.123 202.104,191.716 218.041,192.130 226.838 C 192.135 226.948,190.469 227.882,188.428 228.912 C 175.834 235.267,153.953 256.014,141.922 273.007 C 137.192 279.687,130.901 288.493,127.942 292.576 C 111.360 315.457,105.383 326.073,103.478 336.034 C 101.991 343.804,101.720 364.249,103.005 371.616 C 103.508 374.498,103.922 380.159,103.925 384.196 C 103.931 392.311,106.443 398.286,113.510 406.987 C 115.266 409.148,120.170 415.830,124.409 421.834 C 135.160 437.061,141.287 442.959,155.986 452.229 C 163.130 456.735,197.563 461.145,206.063 458.643 C 207.772 458.140,210.153 457.511,211.354 457.246 C 213.308 456.815,247.911 432.897,250.325 430.309 C 257.580 422.531,244.670 416.180,235.633 423.080 C 231.174 426.485,218.788 434.090,210.710 438.384 L 205.263 441.279 192.369 440.328 C 172.491 438.862,165.659 436.292,150.655 424.637 C 139.433 415.919,135.079 409.495,127.149 389.956 L 124.314 382.969 125.040 369.869 C 126.987 334.752,129.838 323.941,143.671 299.220 C 156.329 276.600,158.447 273.695,172.405 259.815 C 200.999 231.380,200.885 231.361,225.580 268.625 C 253.666 311.008,271.362 325.399,302.905 331.508 C 316.338 334.110,340.989 329.735,351.670 322.854 C 354.955 320.738,359.238 318.199,361.188 317.212 C 386.549 304.375,399.727 261.615,389.524 225.260 C 386.984 216.209,359.888 196.943,355.654 201.177 C 354.648 202.182,355.166 202.966,358.975 206.206 C 372.535 217.740,375.308 221.304,379.501 232.584 C 381.505 237.974,380.101 261.212,377.170 271.179 C 369.617 296.867,344.329 315.284,316.613 315.284 C 301.025 315.284,284.584 311.678,276.856 306.565 C 274.214 304.818,270.239 302.346,268.024 301.072 C 256.102 294.220,221.890 238.736,221.847 226.185 C 221.833 222.044,223.655 218.769,230.663 210.341 C 245.767 192.174,267.476 145.048,270.788 123.237 C 272.315 113.177,272.876 84.661,271.668 78.468 C 269.924 69.525,264.300 53.721,261.568 50.086 C 243.970 26.665,233.110 17.817,216.765 13.581 C 191.202 6.957,173.804 6.057,157.205 10.500 " stroke="none" fill="#dab997" fill-rule="evenodd"></path></g></svg>