<svg id="svg" xmlns="http://www.w3.org/2000/svg" xmlns:xlink="http://www.w3.org/1999/xlink" width="150" height="308" viewBox="0, 0, 400,822.7272727272727"><g id="svgg"><path id="path0" d="M197.230 30.224 C 196.092 35.732,194.815 64.455,193.946 104.088 C 193.164 139.756,192.118 187.689,191.621 210.606 C 190.466 263.819,192.283 258.047,175.393 262.167 C 123.700 274.778,89.706 307.443,92.659 341.667 L 93.182 347.727 97.931 339.394 C 114.880 309.652,163.060 274.744,188.636 273.675 L 193.182 273.485 193.581 324.573 L 193.980 375.661 190.550 377.845 C 188.664 379.046,182.915 381.085,177.774 382.376 C 157.350 387.505,124.242 409.345,124.242 417.688 C 124.242 425.526,166.887 448.434,191.288 453.703 L 195.455 454.603 195.455 470.559 C 195.455 481.755,196.130 487.821,197.720 490.895 C 198.966 493.305,200.654 499.991,201.471 505.752 C 205.220 532.182,207.461 525.916,207.926 487.707 L 208.333 454.201 230.303 446.303 C 242.386 441.960,255.341 436.476,259.091 434.119 C 270.236 427.111,278.788 419.516,278.788 416.625 C 278.788 409.427,252.392 392.635,221.443 380.145 L 208.794 375.040 209.883 325.020 C 210.482 297.509,211.216 274.577,211.515 274.059 C 213.407 270.783,221.930 271.531,230.183 275.697 C 235.024 278.141,243.888 281.853,249.881 283.947 C 274.789 292.649,287.158 302.869,306.901 331.061 C 327.834 360.951,331.495 364.087,326.034 347.450 C 312.285 305.570,273.965 274.159,220.076 260.595 C 214.479 259.186,213.637 258.436,213.642 254.866 C 213.645 252.606,212.620 234.394,211.365 214.394 C 210.110 194.394,208.421 157.235,207.612 131.818 C 206.035 82.304,202.125 24.247,200.242 22.363 C 199.609 21.730,198.253 25.268,197.230 30.224 M193.892 396.591 C 193.830 406.048,189.908 438.851,188.583 440.995 C 187.092 443.408,183.013 442.039,161.958 432.064 C 139.739 421.538,135.945 418.284,140.294 413.479 C 145.201 408.056,183.281 390.690,192.803 389.532 C 193.428 389.456,193.918 392.633,193.892 396.591 M232.654 399.230 C 239.040 402.140,246.894 405.309,250.109 406.272 C 253.323 407.235,257.471 409.639,259.326 411.614 L 262.700 415.205 257.486 419.739 C 246.525 429.270,223.910 439.394,213.579 439.394 L 209.506 439.394 209.982 417.045 C 210.244 404.754,210.491 394.527,210.532 394.318 C 210.938 392.242,223.383 395.005,232.654 399.230 M31.347 402.566 C 24.356 413.879,35.020 454.901,54.668 492.275 C 76.352 533.520,124.063 568.077,184.848 586.563 L 191.667 588.636 192.689 678.030 C 193.730 769.067,194.828 799.790,196.958 797.496 C 197.613 796.790,199.348 792.121,200.814 787.121 C 207.492 764.335,207.836 759.561,208.859 675.420 C 210.040 578.235,206.083 590.001,240.367 581.746 C 281.524 571.837,297.639 560.500,331.818 517.407 C 338.915 508.460,350.952 484.635,355.297 470.939 C 357.231 464.839,360.678 454.735,362.955 448.485 C 366.860 437.770,371.046 419.439,371.683 410.265 C 372.290 401.526,368.735 405.925,363.448 420.455 C 360.416 428.788,355.423 441.402,352.353 448.485 C 349.283 455.568,344.274 467.138,341.223 474.196 C 330.731 498.466,321.373 510.266,298.485 528.090 C 292.235 532.957,283.749 539.931,279.627 543.589 C 265.143 556.443,222.204 569.261,215.116 562.846 C 210.025 558.240,200.780 558.165,195.405 562.688 C 187.055 569.714,168.685 567.075,149.242 556.055 C 145.909 554.166,139.432 550.587,134.848 548.102 C 124.303 542.385,120.471 539.735,104.274 526.949 C 90.359 515.966,85.051 509.551,70.688 486.364 C 65.784 478.447,59.554 468.902,56.843 465.152 C 50.202 455.966,46.187 446.488,40.155 425.758 C 33.779 403.846,32.553 400.616,31.347 402.566 " stroke="none" fill="#dab997" fill-rule="evenodd"></path></g></svg>